HIERARCHY
ROOT CC_Base_BoneRoot
{
	OFFSET 0.000000 0.000000 0.000000
	CHANNELS 6 Xposition Yposition Zposition Xrotation Yrotation Zrotation
	JOINT CC_Base_Hip
	{
		OFFSET 0.000000 0.000000 105.214241
		CHANNELS 3 Xrotation Yrotation Zrotation
		JOINT CC_Base_Pelvis
		{
			OFFSET -0.000000 -0.000001 -0.000069
			CHANNELS 3 Xrotation Yrotation Zrotation
			JOINT CC_Base_L_Thigh
			{
				OFFSET 9.679232 0.301105 -2.207489
				CHANNELS 3 Xrotation Yrotation Zrotation
				JOINT CC_Base_L_Calf
				{
					OFFSET -0.939750 -0.172164 -47.658329
					CHANNELS 3 Xrotation Yrotation Zrotation
					JOINT CC_Base_L_Foot
					{
						OFFSET -0.952431 0.632389 -49.810875
						CHANNELS 3 Xrotation Yrotation Zrotation
						JOINT CC_Base_L_ToeBaseShareBone
						{
							OFFSET 1.566516 -13.132577 -2.423887
							CHANNELS 3 Xrotation Yrotation Zrotation
							End Site
							{
								OFFSET 0.820910 -13.277843 1.311294
							}
						}
						JOINT CC_Base_L_ToeBase
						{
							OFFSET 1.556535 -12.970218 -2.440896
							CHANNELS 3 Xrotation Yrotation Zrotation
							JOINT CC_Base_L_PinkyToe1
							{
								OFFSET 3.000326 -0.095164 -0.265234
								CHANNELS 3 Xrotation Yrotation Zrotation
								End Site
								{
									OFFSET 0.071889 -2.740657 -1.237427
								}
							}
							JOINT CC_Base_L_RingToe1
							{
								OFFSET 1.613520 -1.258591 0.234524
								CHANNELS 3 Xrotation Yrotation Zrotation
								End Site
								{
									OFFSET 0.209102 -2.660546 -1.387572
								}
							}
							JOINT CC_Base_L_MidToe1
							{
								OFFSET 0.190605 -2.362959 0.359053
								CHANNELS 3 Xrotation Yrotation Zrotation
								End Site
								{
									OFFSET 0.263171 -2.823983 -1.001724
								}
							}
							JOINT CC_Base_L_IndexToe1
							{
								OFFSET -1.455172 -2.683045 0.570290
								CHANNELS 3 Xrotation Yrotation Zrotation
								End Site
								{
									OFFSET 0.326793 -2.793737 -1.065754
								}
							}
							JOINT CC_Base_L_BigToe1
							{
								OFFSET -3.660310 -2.552900 0.092412
								CHANNELS 3 Xrotation Yrotation Zrotation
								End Site
								{
									OFFSET 0.310800 -2.991206 -0.060640
								}
							}
						}
					}
					JOINT CC_Base_L_CalfTwist01
					{
						OFFSET -0.000006 0.000004 -0.000038
						CHANNELS 3 Xrotation Yrotation Zrotation
						JOINT CC_Base_L_CalfTwist02
						{
							OFFSET -0.475341 0.310379 -24.892138
							CHANNELS 3 Xrotation Yrotation Zrotation
							End Site
							{
								OFFSET -0.633384 0.481544 -24.885893
							}
						}
					}
					JOINT CC_Base_L_KneeShareBone
					{
						OFFSET -0.000010 0.000005 -0.000038
						CHANNELS 3 Xrotation Yrotation Zrotation
						End Site
						{
							OFFSET -0.422251 0.318261 -16.599602
						}
					}
				}
				JOINT CC_Base_L_ThighTwist01
				{
					OFFSET -0.000006 0.000002 -0.000031
					CHANNELS 3 Xrotation Yrotation Zrotation
					JOINT CC_Base_L_ThighTwist02
					{
						OFFSET -0.465212 -0.080397 -23.828621
						CHANNELS 3 Xrotation Yrotation Zrotation
						End Site
						{
							OFFSET -0.577665 -0.248224 -23.825005
						}
					}
				}
			}
			JOINT CC_Base_R_Thigh
			{
				OFFSET -9.679712 0.301104 -2.207550
				CHANNELS 3 Xrotation Yrotation Zrotation
				JOINT CC_Base_R_ThighTwist01
				{
					OFFSET 0.000007 -0.000003 -0.000008
					CHANNELS 3 Xrotation Yrotation Zrotation
					JOINT CC_Base_R_ThighTwist02
					{
						OFFSET 0.464272 -0.089817 -23.829117
						CHANNELS 3 Xrotation Yrotation Zrotation
						End Site
						{
							OFFSET 0.584725 -0.252406 -23.825294
						}
					}
				}
				JOINT CC_Base_R_Calf
				{
					OFFSET 0.937987 -0.190387 -47.658482
					CHANNELS 3 Xrotation Yrotation Zrotation
					JOINT CC_Base_R_Foot
					{
						OFFSET 0.950368 0.643215 -49.811081
						CHANNELS 3 Xrotation Yrotation Zrotation
						JOINT CC_Base_R_ToeBase
						{
							OFFSET -1.559783 -13.132576 -2.424223
							CHANNELS 3 Xrotation Yrotation Zrotation
							JOINT CC_Base_R_PinkyToe1
							{
								OFFSET -2.990087 -0.102175 -0.270662
								CHANNELS 3 Xrotation Yrotation Zrotation
								End Site
								{
									OFFSET -0.079772 -2.736538 -1.234487
								}
							}
							JOINT CC_Base_R_BigToe1
							{
								OFFSET 3.670992 -2.549512 0.084144
								CHANNELS 3 Xrotation Yrotation Zrotation
								End Site
								{
									OFFSET -0.319780 -2.985505 -0.058824
								}
							}
							JOINT CC_Base_R_IndexToe1
							{
								OFFSET 1.462413 -2.674656 0.556736
								CHANNELS 3 Xrotation Yrotation Zrotation
								End Site
								{
									OFFSET -0.334732 -2.788952 -1.062384
								}
							}
							JOINT CC_Base_R_MidToe1
							{
								OFFSET -0.182861 -2.360682 0.344119
								CHANNELS 3 Xrotation Yrotation Zrotation
								End Site
								{
									OFFSET -0.271526 -2.819080 -0.999012
								}
							}
							JOINT CC_Base_R_RingToe1
							{
								OFFSET -1.607688 -1.252522 0.222115
								CHANNELS 3 Xrotation Yrotation Zrotation
								End Site
								{
									OFFSET -0.216478 -2.655741 -1.385331
								}
							}
						}
						JOINT CC_Base_R_ToeBaseShareBone
						{
							OFFSET -1.559776 -13.132500 -2.424137
							CHANNELS 3 Xrotation Yrotation Zrotation
							End Site
							{
								OFFSET -0.869085 -13.350641 1.333500
							}
						}
					}
					JOINT CC_Base_R_KneeShareBone
					{
						OFFSET -0.000003 -0.000001 -0.000011
						CHANNELS 3 Xrotation Yrotation Zrotation
						End Site
						{
							OFFSET 0.423583 0.316123 -16.599697
						}
					}
					JOINT CC_Base_R_CalfTwist01
					{
						OFFSET -0.000003 -0.000001 -0.000011
						CHANNELS 3 Xrotation Yrotation Zrotation
						JOINT CC_Base_R_CalfTwist02
						{
							OFFSET 0.474322 0.315302 -24.892122
							CHANNELS 3 Xrotation Yrotation Zrotation
							End Site
							{
								OFFSET 0.638875 0.494206 -24.885532
							}
						}
					}
				}
			}
		}
		JOINT CC_Base_Waist
		{
			OFFSET 0.000123 -1.391190 7.892227
			CHANNELS 3 Xrotation Yrotation Zrotation
			JOINT CC_Base_Spine01
			{
				OFFSET -0.000665 -2.896428 4.000412
				CHANNELS 3 Xrotation Yrotation Zrotation
				JOINT CC_Base_Spine02
				{
					OFFSET -0.000151 3.172371 14.481407
					CHANNELS 3 Xrotation Yrotation Zrotation
					JOINT CC_Base_NeckTwist01
					{
						OFFSET 0.001830 5.037313 26.915466
						CHANNELS 3 Xrotation Yrotation Zrotation
						JOINT CC_Base_NeckTwist02
						{
							OFFSET -0.000429 -0.994779 3.682953
							CHANNELS 3 Xrotation Yrotation Zrotation
							JOINT CC_Base_Head
							{
								OFFSET -0.000365 -1.056073 3.987289
								CHANNELS 3 Xrotation Yrotation Zrotation
								JOINT CC_Base_FacialBone
								{
									OFFSET -0.000076 -0.000019 -0.000015
									CHANNELS 3 Xrotation Yrotation Zrotation
									JOINT CC_Base_JawRoot
									{
										OFFSET 0.000166 -2.577461 1.589859
										CHANNELS 3 Xrotation Yrotation Zrotation
										JOINT CC_Base_Tongue01
										{
											OFFSET -0.000266 -3.515649 -0.902802
											CHANNELS 3 Xrotation Yrotation Zrotation
											JOINT CC_Base_Tongue02
											{
												OFFSET -0.000103 -1.192833 -0.092529
												CHANNELS 3 Xrotation Yrotation Zrotation
												JOINT CC_Base_Tongue03
												{
													OFFSET -0.000133 -1.588274 -0.455170
													CHANNELS 3 Xrotation Yrotation Zrotation
													End Site
													{
														OFFSET -0.000195 0.578345 -1.547684
													}
												}
											}
										}
										JOINT CC_Base_Teeth02
										{
											OFFSET -0.000445 -3.518791 -0.882431
											CHANNELS 3 Xrotation Yrotation Zrotation
											End Site
											{
												OFFSET -0.000062 0.000900 3.628738
											}
										}
									}
									JOINT CC_Base_R_Eye
									{
										OFFSET -3.320127 -8.218504 8.193512
										CHANNELS 3 Xrotation Yrotation Zrotation
										End Site
										{
											OFFSET 0.002065 8.681551 -0.000092
										}
									}
									JOINT CC_Base_L_Eye
									{
										OFFSET 3.318957 -8.219094 8.193741
										CHANNELS 3 Xrotation Yrotation Zrotation
										End Site
										{
											OFFSET 0.002065 8.681551 0.000015
										}
									}
									JOINT CC_Base_UpperJaw
									{
										OFFSET -0.000138 -6.915838 3.044510
										CHANNELS 3 Xrotation Yrotation Zrotation
										JOINT CC_Base_Teeth01
										{
											OFFSET -0.000113 -0.066461 0.210709
											CHANNELS 3 Xrotation Yrotation Zrotation
											End Site
											{
												OFFSET 0.000006 0.000046 0.220947
											}
										}
									}
								}
							}
						}
					}
					JOINT CC_Base_L_Clavicle
					{
						OFFSET 5.625835 3.736514 20.628326
						CHANNELS 3 Xrotation Yrotation Zrotation
						JOINT CC_Base_L_Upperarm
						{
							OFFSET 12.748119 2.616885 -0.026810
							CHANNELS 3 Xrotation Yrotation Zrotation
							JOINT CC_Base_L_Forearm
							{
								OFFSET 25.207462 0.007299 -0.258804
								CHANNELS 3 Xrotation Yrotation Zrotation
								JOINT CC_Base_L_ForearmTwist01
								{
									OFFSET -0.000061 0.000038 0.000046
									CHANNELS 3 Xrotation Yrotation Zrotation
									JOINT CC_Base_L_ForearmTwist02
									{
										OFFSET 12.849483 -0.003518 0.057983
										CHANNELS 3 Xrotation Yrotation Zrotation
										End Site
										{
											OFFSET 12.845856 -0.146425 -0.274261
										}
									}
								}
								JOINT CC_Base_L_ElbowShareBone
								{
									OFFSET -0.000008 -0.000001 -0.000031
									CHANNELS 3 Xrotation Yrotation Zrotation
									End Site
									{
										OFFSET 8.567738 -0.043919 -0.182861
									}
								}
								JOINT CC_Base_L_Hand
								{
									OFFSET 25.708935 0.000525 0.133942
									CHANNELS 3 Xrotation Yrotation Zrotation
									JOINT CC_Base_L_Mid1
									{
										OFFSET 11.379295 -1.876784 -0.235855
										CHANNELS 3 Xrotation Yrotation Zrotation
										JOINT CC_Base_L_Mid2
										{
											OFFSET 4.206909 -0.123435 0.033875
											CHANNELS 3 Xrotation Yrotation Zrotation
											JOINT CC_Base_L_Mid3
											{
												OFFSET 2.707268 -0.095429 0.031494
												CHANNELS 3 Xrotation Yrotation Zrotation
												End Site
												{
													OFFSET 2.699577 -0.042444 -0.223358
												}
											}
										}
									}
									JOINT CC_Base_L_Index1
									{
										OFFSET 11.270035 -4.733048 0.074539
										CHANNELS 3 Xrotation Yrotation Zrotation
										JOINT CC_Base_L_Index2
										{
											OFFSET 3.081078 -0.105606 0.039658
											CHANNELS 3 Xrotation Yrotation Zrotation
											JOINT CC_Base_L_Index3
											{
												OFFSET 2.603844 -0.079981 0.040771
												CHANNELS 3 Xrotation Yrotation Zrotation
												End Site
												{
													OFFSET 2.590714 -0.033555 -0.274155
												}
											}
										}
									}
									JOINT CC_Base_L_Ring1
									{
										OFFSET 11.200226 0.468256 -1.122910
										CHANNELS 3 Xrotation Yrotation Zrotation
										JOINT CC_Base_L_Ring2
										{
											OFFSET 3.548828 -0.120251 0.012604
											CHANNELS 3 Xrotation Yrotation Zrotation
											JOINT CC_Base_L_Ring3
											{
												OFFSET 2.486275 -0.090200 0.002686
												CHANNELS 3 Xrotation Yrotation Zrotation
												End Site
												{
													OFFSET 2.478577 0.023370 -0.214066
												}
											}
										}
									}
									JOINT CC_Base_L_Pinky1
									{
										OFFSET 10.416008 2.486697 -2.113419
										CHANNELS 3 Xrotation Yrotation Zrotation
										JOINT CC_Base_L_Pinky2
										{
											OFFSET 2.772491 -0.086895 -0.000244
											CHANNELS 3 Xrotation Yrotation Zrotation
											JOINT CC_Base_L_Pinky3
											{
												OFFSET 2.170418 -0.104033 -0.002472
												CHANNELS 3 Xrotation Yrotation Zrotation
												End Site
												{
													OFFSET 2.151093 -0.017404 -0.306686
												}
											}
										}
									}
									JOINT CC_Base_L_Thumb1
									{
										OFFSET 5.097328 -5.012833 -1.319916
										CHANNELS 3 Xrotation Yrotation Zrotation
										JOINT CC_Base_L_Thumb2
										{
											OFFSET 2.023773 -1.980936 0.020203
											CHANNELS 3 Xrotation Yrotation Zrotation
											JOINT CC_Base_L_Thumb3
											{
												OFFSET 3.367142 -1.516251 -0.003632
												CHANNELS 3 Xrotation Yrotation Zrotation
												End Site
												{
													OFFSET 3.222420 -1.803511 0.004181
												}
											}
										}
									}
								}
							}
							JOINT CC_Base_L_UpperarmTwist01
							{
								OFFSET 0.000006 0.000000 -0.000092
								CHANNELS 3 Xrotation Yrotation Zrotation
								JOINT CC_Base_L_UpperarmTwist02
								{
									OFFSET 12.626181 0.017348 -0.086411
									CHANNELS 3 Xrotation Yrotation Zrotation
									End Site
									{
										OFFSET 12.614151 -0.116489 -0.545715
									}
								}
							}
						}
					}
					JOINT CC_Base_R_Clavicle
					{
						OFFSET -5.621921 3.738149 20.628403
						CHANNELS 3 Xrotation Yrotation Zrotation
						JOINT CC_Base_R_Upperarm
						{
							OFFSET -12.747458 2.620382 -0.027130
							CHANNELS 3 Xrotation Yrotation Zrotation
							JOINT CC_Base_R_UpperarmTwist01
							{
								OFFSET 0.000004 -0.000002 0.000061
								CHANNELS 3 Xrotation Yrotation Zrotation
								JOINT CC_Base_R_UpperarmTwist02
								{
									OFFSET -12.626461 0.032800 -0.087509
									CHANNELS 3 Xrotation Yrotation Zrotation
									End Site
									{
										OFFSET -12.614147 -0.143803 -0.546738
									}
								}
							}
							JOINT CC_Base_R_Forearm
							{
								OFFSET -25.207649 0.030312 -0.259460
								CHANNELS 3 Xrotation Yrotation Zrotation
								JOINT CC_Base_R_ForearmTwist01
								{
									OFFSET -0.000069 -0.000037 -0.000259
									CHANNELS 3 Xrotation Yrotation Zrotation
									JOINT CC_Base_R_ForearmTwist02
									{
										OFFSET -12.849583 0.005212 0.057632
										CHANNELS 3 Xrotation Yrotation Zrotation
										End Site
										{
											OFFSET -12.845531 -0.178712 -0.274628
										}
									}
								}
								JOINT CC_Base_R_ElbowShareBone
								{
									OFFSET 0.000011 0.000005 -0.000198
									CHANNELS 3 Xrotation Yrotation Zrotation
									End Site
									{
										OFFSET -8.567799 -0.064058 -0.182922
									}
								}
								JOINT CC_Base_R_Hand
								{
									OFFSET -25.709145 0.019975 0.132889
									CHANNELS 3 Xrotation Yrotation Zrotation
									JOINT CC_Base_R_Mid1
									{
										OFFSET -11.380081 -1.865469 -0.234695
										CHANNELS 3 Xrotation Yrotation Zrotation
										JOINT CC_Base_R_Mid2
										{
											OFFSET -4.207092 -0.119065 0.033829
											CHANNELS 3 Xrotation Yrotation Zrotation
											JOINT CC_Base_R_Mid3
											{
												OFFSET -2.707199 -0.092269 0.031372
												CHANNELS 3 Xrotation Yrotation Zrotation
												End Site
												{
													OFFSET -2.699371 -0.048402 -0.222458
												}
											}
										}
									}
									JOINT CC_Base_R_Ring1
									{
										OFFSET -11.199821 0.477916 -1.123932
										CHANNELS 3 Xrotation Yrotation Zrotation
										JOINT CC_Base_R_Ring2
										{
											OFFSET -3.548981 -0.116987 0.012604
											CHANNELS 3 Xrotation Yrotation Zrotation
											JOINT CC_Base_R_Ring3
											{
												OFFSET -2.486282 -0.087294 0.002426
												CHANNELS 3 Xrotation Yrotation Zrotation
												End Site
												{
													OFFSET -2.478539 0.017891 -0.213837
												}
											}
										}
									}
									JOINT CC_Base_R_Thumb1
									{
										OFFSET -5.101601 -5.060779 -1.317978
										CHANNELS 3 Xrotation Yrotation Zrotation
										JOINT CC_Base_R_Thumb2
										{
											OFFSET -2.022972 -1.980966 0.019958
											CHANNELS 3 Xrotation Yrotation Zrotation
											JOINT CC_Base_R_Thumb3
											{
												OFFSET -3.366974 -1.734020 -0.002975
												CHANNELS 3 Xrotation Yrotation Zrotation
												End Site
												{
													OFFSET -3.295723 -1.865891 0.004898
												}
											}
										}
									}
									JOINT CC_Base_R_Index1
									{
										OFFSET -11.272018 -4.721709 0.078278
										CHANNELS 3 Xrotation Yrotation Zrotation
										JOINT CC_Base_R_Index2
										{
											OFFSET -3.081085 -0.102337 0.039734
											CHANNELS 3 Xrotation Yrotation Zrotation
											JOINT CC_Base_R_Index3
											{
												OFFSET -2.603897 -0.076826 0.040741
												CHANNELS 3 Xrotation Yrotation Zrotation
												End Site
												{
													OFFSET -2.590599 -0.039103 -0.274048
												}
											}
										}
									}
									JOINT CC_Base_R_Pinky1
									{
										OFFSET -10.414719 2.497349 -2.116714
										CHANNELS 3 Xrotation Yrotation Zrotation
										JOINT CC_Base_R_Pinky2
										{
											OFFSET -2.772430 -0.083082 -0.000153
											CHANNELS 3 Xrotation Yrotation Zrotation
											JOINT CC_Base_R_Pinky3
											{
												OFFSET -2.170349 -0.100748 -0.002747
												CHANNELS 3 Xrotation Yrotation Zrotation
												End Site
												{
													OFFSET -2.150795 -0.021683 -0.306870
												}
											}
										}
									}
								}
							}
						}
					}
					JOINT CC_Base_R_RibsTwist
					{
						OFFSET -10.856568 -8.884927 8.713364
						CHANNELS 3 Xrotation Yrotation Zrotation
						JOINT CC_Base_R_Breast
						{
							OFFSET 0.000867 -3.000035 -0.000153
							CHANNELS 3 Xrotation Yrotation Zrotation
							End Site
							{
								OFFSET -0.000044 -3.000034 -0.000320
							}
						}
					}
					JOINT CC_Base_L_RibsTwist
					{
						OFFSET 10.835660 -8.887159 8.684448
						CHANNELS 3 Xrotation Yrotation Zrotation
						JOINT CC_Base_L_Breast
						{
							OFFSET -0.001493 -3.000003 -0.000214
							CHANNELS 3 Xrotation Yrotation Zrotation
							End Site
							{
								OFFSET -0.000053 -3.000003 -0.000320
							}
						}
					}
				}
			}
		}
	}
}
MOTION
Frames: 2
Frame Time: 0.016667
0.000000 0.000000 0.000000 -0.000000 0.000000 0.977988 -9.747763 -2.110443 -0.000012 0.000003 -0.000001 0.000000 -5.402132 -3.722535 5.794247 69.351944 0.542369 -1.638197 -0.924637 -0.579637 2.533817 0.000010 -0.000001 -0.000000 -4.710116 -0.276058 -0.295394 0.000000 -0.000000 -0.000000 0.000003 -0.000003 -0.000001 0.000015 -0.000002 0.000002 0.000018 -0.000004 0.000002 0.000001 -0.000000 -0.000003 0.008361 -0.006303 0.327252 -0.002884 0.002194 -0.113241 -34.670703 0.323323 0.876115 -0.069010 -0.027583 -2.805735 0.067291 0.030885 2.805709 -0.480127 2.164219 -7.234451 -0.089342 0.035283 3.593919 0.086965 -0.040815 -3.593863 16.798668 -1.844969 0.398835 -6.631256 3.110464 1.494613 0.000283 -0.000172 -0.347988 -0.000012 -0.000001 0.000000 -0.000000 -0.000001 0.000001 -0.000016 -0.000004 0.000000 -0.000012 -0.000003 0.000001 -0.000003 -0.000003 -0.000002 -0.000008 0.000001 0.000005 -8.421339 0.676235 -0.022964 0.000189 0.000147 -0.007553 -0.033557 -0.026586 1.319280 2.578196 -3.682993 0.468282 8.420333 2.689479 0.002387 8.434843 2.643826 -0.487256 -0.663956 0.533785 0.070810 -0.664096 0.533784 0.070814 -3.965802 -2.609300 -1.967364 0.000016 0.000014 -0.000029 0.000002 -0.001159 0.001156 0.000019 0.000004 -0.000001 0.000022 -0.000005 -0.000002 -0.000020 0.000007 -0.000003 0.000025 0.000011 0.000002 -0.011330 -0.002286 0.011349 -0.011325 -0.002286 0.011344 0.000005 -0.001157 0.001148 0.000022 -0.000001 -0.000003 3.479774 16.533603 -13.329598 25.578724 48.958581 -16.152195 -0.274140 0.081755 -33.966531 -0.207426 0.002356 0.004411 5.253839 -0.064932 -0.109261 0.030308 -0.143561 20.383113 10.142985 -10.860599 -1.688997 -0.000060 18.446726 -0.000128 -0.000139 27.990667 -0.000089 0.000785 17.895775 -0.000349 -0.016275 15.980773 -0.441413 0.000393 22.443351 -0.000593 -0.000515 4.887355 -0.000057 0.395901 22.214681 0.378073 -0.000214 36.159865 -0.000102 -0.000074 24.020102 -0.000053 0.666888 25.470286 1.102752 -0.000189 29.914135 -0.000072 -0.000022 18.333655 -0.000126 9.860456 16.257621 12.824040 -0.585047 -1.447735 4.007487 0.856153 1.304145 0.295086 -8.919712 0.052092 0.390748 8.919169 -0.111993 -0.377918 1.571752 -17.602548 7.055009 18.611893 -52.309690 20.173660 -4.208940 -0.041260 -0.184018 4.208777 0.054640 0.180491 -0.513621 -0.002937 18.205282 0.045704 0.000632 0.000971 9.540874 0.149077 0.192012 0.333928 -0.096771 -10.921990 18.681614 11.334070 4.539071 0.119155 -16.327765 1.435706 -0.000136 -25.865640 -0.000020 -0.000062 -15.773895 0.000015 0.122092 -20.701460 0.186554 -0.000254 -34.635514 -0.000127 -0.000085 -22.500829 -0.000084 9.887129 -16.222545 -13.987605 -0.560301 1.468747 -4.329337 0.844830 -1.264674 -1.464688 0.118363 -13.864965 2.378341 0.000336 -20.316997 0.000216 -0.000420 -2.767202 0.000059 0.124177 -23.969815 -2.142287 -0.000134 -28.395627 0.000258 -0.000125 -16.813703 0.000067 0.000016 0.000002 -0.000001 -0.000001 -0.000000 0.000000 0.000011 0.000006 -0.000002 -0.000001 0.000000 0.000000 
-0.000841 -0.010969 0.000000 -0.000000 0.000000 0.976386 -9.750130 -2.111025 0.000103 -0.000010 0.000000 0.000000 -5.418215 -3.718686 5.788932 69.357074 0.542123 -1.638156 -0.934544 -0.577582 2.532317 0.000001 0.000001 0.000001 -4.709472 -0.276429 -0.296014 -0.000013 -0.000001 -0.000004 0.000004 -0.000003 -0.000003 -0.000003 -0.000002 -0.000004 0.000003 -0.000002 -0.000003 -0.000009 -0.000000 -0.000008 0.008358 -0.006304 0.327163 -0.002845 0.002167 -0.111855 -34.673278 0.323432 0.876142 -0.068946 -0.027557 -2.802916 0.067213 0.030853 2.802889 -0.472593 2.164705 -7.237334 -0.089385 0.035297 3.595445 0.086992 -0.040833 -3.595389 16.801205 -1.844868 0.398860 -6.638971 3.110280 1.498998 0.000252 -0.000185 -0.347969 -0.000013 -0.000000 0.000000 -0.000003 0.000001 0.000000 -0.000017 -0.000003 0.000002 -0.000021 -0.000001 0.000004 -0.000005 -0.000001 0.000002 -0.000014 0.000000 0.000000 -8.422608 0.676152 -0.022940 0.000189 0.000146 -0.007510 -0.033570 -0.026587 1.319239 2.579704 -3.679833 0.469017 8.421133 2.689119 0.004006 8.435795 2.643453 -0.485409 -0.663834 0.533392 0.070915 -0.664029 0.533399 0.070917 -3.966917 -2.609767 -1.964626 0.000002 0.000014 -0.000022 0.000036 -0.001153 0.001165 -0.000001 0.000002 -0.000005 -0.000019 0.000003 -0.000007 0.000009 -0.000000 0.000003 -0.000009 0.000011 -0.000018 -0.011331 -0.002286 0.011349 -0.011326 -0.002286 0.011344 0.000005 -0.001147 0.001153 0.000015 -0.000001 0.000007 3.479619 16.535191 -13.328888 25.580023 48.953479 -16.195649 -0.274140 0.081465 -33.901582 -0.206886 0.002354 0.004411 5.235073 -0.064688 -0.108886 0.030514 -0.142781 20.344147 10.104584 -10.877112 -1.704916 -0.000042 18.448693 -0.000106 -0.000180 27.991071 -0.000078 0.000782 17.898055 -0.000354 -0.016203 15.983052 -0.441125 0.000362 22.443160 -0.000610 -0.000474 4.889895 -0.000067 0.395751 22.220200 0.377970 -0.000209 36.165613 -0.000122 -0.000063 24.025725 -0.000049 0.666542 25.475808 1.102441 -0.000176 29.919777 -0.000050 0.000005 18.339271 -0.000146 9.860456 16.257513 12.823684 -0.585031 -1.447755 4.008705 0.856146 1.304082 0.294979 -8.911679 0.052066 0.390386 8.911132 -0.111877 -0.377592 1.575090 -17.600201 7.066464 18.602157 -52.291652 20.169573 -4.207324 -0.041242 -0.183952 4.207157 0.054611 0.180425 -0.513540 -0.003354 18.245891 0.045232 0.000626 0.000980 9.539416 0.149054 0.191986 0.333545 -0.096522 -10.946371 18.676497 11.354999 4.540237 0.119346 -16.320145 1.437948 -0.000152 -25.857114 -0.000023 -0.000071 -15.766392 0.000047 0.122216 -20.692758 0.186873 -0.000166 -34.629838 -0.000128 -0.000125 -22.491640 -0.000029 9.887117 -16.222575 -13.987542 -0.560314 1.468767 -4.329510 0.844843 -1.264637 -1.464605 0.118512 -13.856617 2.382118 0.000365 -20.310104 0.000215 -0.000433 -2.758769 0.000091 0.124361 -23.962547 -2.145731 -0.000181 -28.386244 0.000256 -0.000133 -16.806652 0.000016 0.000015 0.000002 -0.000001 0.000001 -0.000000 0.000000 -0.000002 0.000006 -0.000001 -0.000000 0.000000 0.000000 
